<svg xmlns="http://www.w3.org/2000/svg" viewBox="0 0 588.91 513.23"><defs><style>.cls-1{fill:#fff;}</style></defs><g id="Layer_2" data-name="Layer 2"><g id="Layer_1-2" data-name="Layer 1"><path class="cls-1" d="M57.13,499.88C53,507,42.86,512.91,34.61,513l-25.35.19c-8.25.07-11.62-5.73-7.5-12.87L287.14,6c4.12-7.15,10.85-7.14,14.95,0l13.06,22.82c4.1,7.16,4.07,18.85-.06,26Z"/><path class="cls-1" d="M282,68.51c-4.13-7.15-8.69-15-10.13-17.55s-2-15,2.06-22.2L287,5.43c4-7.2,10.69-7.25,14.82-.1L587.15,499.62c4.12,7.14.75,13-7.5,13.06l-26,.11c-8.25,0-18.38-5.78-22.5-12.92Z"/><path class="cls-1" d="M181.14,499.88c-4.14,7.14-14.28,13-22.53,13h-24c-8.25,0-11.64-5.85-7.54-13L286.75,221.35c4.1-7.16,10.73-7.11,14.72.11l12.88,23.27c4,7.22,3.87,19-.27,26.1Z"/><path class="cls-1" d="M461.15,499.84c4.1,7.16.71,13-7.54,13h-24c-8.25,0-18.38-5.84-22.51-13l-133-230C270,262.7,270,251,274,243.82l12.8-22.45c4.08-7.17,10.78-7.17,14.88,0Z"/><path class="cls-1" d="M318.44,503c-3.86,5.68-13.76,10.28-22,10.23L254.62,513c-8.25-.05-11.68-6-7.63-13.16l40.85-72.4c4.05-7.18,10.61-7.14,14.58.09l22.84,41.7C329.22,476.43,322.3,497.32,318.44,503Z"/><path class="cls-1" d="M342.29,499.76c4,7.2.57,13.09-7.68,13.09h-19c-8.25,0-18.54-5.74-22.86-12.77l-16.28-26.45c-4.32-7-4.44-18.59-.25-25.7l11.44-19.45c4.18-7.11,10.9-7,14.92.17Z"/><rect class="cls-1" x="294.85" y="501.35" width="28.26" height="11.68"/><rect class="cls-1" x="264.71" y="451.97" width="49.55" height="48.56" transform="translate(-267.7 488.83) rotate(-60)"/><rect class="cls-1" x="225.63" y="50.49" width="101" height="45.74" transform="translate(74.54 275.81) rotate(-60)"/><rect class="cls-1" x="222.16" y="271.17" width="101" height="45.74" transform="translate(-118.32 383.15) rotate(-60)"/></g></g></svg>